G04 Layer: BottomLayer*
G04 EasyEDA v6.5.1, 2022-03-27 02:12:12*
G04 f7dead78dcdb48cf945481d8fe3a8f79,963ededa1bec40798c37f3e62625e793,10*
G04 Gerber Generator version 0.2*
G04 Scale: 100 percent, Rotated: No, Reflected: No *
G04 Dimensions in millimeters *
G04 leading zeros omitted , absolute positions ,4 integer and 5 decimal *
%FSLAX45Y45*%
%MOMM*%

%ADD10C,0.2540*%
%ADD11C,0.5000*%
%ADD12R,1.6000X1.6000*%
%ADD13C,1.6000*%
%ADD14R,1.5240X1.5240*%
%ADD15C,1.5240*%
%ADD16C,2.0000*%
%ADD17R,1.8000X1.8000*%
%ADD18C,1.8000*%
%ADD19R,2.4994X2.4994*%
%ADD21C,2.0320*%

%LPD*%
D10*
X1587500Y4838827D02*
G01*
X2336667Y4838827D01*
X3619500Y3555994D01*
X5410200Y4914900D02*
G01*
X5410200Y4267200D01*
X4711700Y3568700D01*
X3619500Y3568700D01*
X3619500Y2743200D01*
X5410200Y6438900D02*
G01*
X5791200Y6438900D01*
X5791200Y3543300D01*
X4622800Y2374900D01*
X1524000Y2374900D01*
X1511300Y2387600D01*
X3111500Y2743200D02*
G01*
X3009900Y2641600D01*
X1511300Y2641600D01*
X1587500Y6108700D02*
G01*
X635000Y5511800D01*
X635000Y2641600D01*
X1511300Y2641600D01*
X1587500Y6108700D02*
G01*
X2006091Y6528307D01*
X914400Y8763000D02*
G01*
X673100Y8763000D01*
X584200Y8674100D01*
X584200Y7950200D01*
X2095500Y6438900D01*
X2870200Y6438900D01*
D11*
X4686300Y-1727200D02*
G01*
X4686300Y1104900D01*
X6934200Y3352800D01*
X6934200Y4730750D01*
X6928104Y4737100D01*
X2959100Y-1727200D02*
G01*
X2959100Y-12700D01*
X6286500Y3314700D01*
X6286500Y9118600D01*
X5943600Y9461500D01*
X5435600Y9461500D01*
X5410200Y9486900D01*
X5092700Y-6121400D02*
G01*
X4127500Y-6121400D01*
X3276600Y-5270500D01*
X2349500Y-5270500D01*
X2184400Y-5435600D01*
X2184400Y-5676900D01*
D10*
X5410200Y5930900D02*
G01*
X3784600Y5930900D01*
D11*
X7264400Y7924800D02*
G01*
X7264400Y8356600D01*
X7200900Y8420100D01*
X6286500Y8420100D01*
D10*
X2870200Y6692900D02*
G01*
X2540000Y6692900D01*
X1231900Y8001000D01*
X914400Y8001000D01*
X914400Y8255000D02*
G01*
X1244600Y8255000D01*
X2552700Y6946900D01*
X2870200Y6946900D01*
X1599313Y4827015D02*
G01*
X1587500Y4838829D01*
X1511300Y2133600D02*
G01*
X3194377Y2133600D01*
X4149885Y1178092D01*
D12*
G01*
X7213600Y2413000D03*
D13*
G01*
X7213600Y2667000D03*
D12*
G01*
X4406900Y3937000D03*
D13*
G01*
X4152900Y3937000D03*
D12*
G01*
X838200Y3505200D03*
D13*
G01*
X838200Y3251200D03*
G36*
X3717300Y-389900D02*
G01*
X3877299Y-389900D01*
X3877299Y-549899D01*
X3717300Y-549899D01*
G37*
G01*
X4051300Y-469900D03*
G36*
X3971300Y1921499D02*
G01*
X4131299Y1921499D01*
X4131299Y1761500D01*
X3971300Y1761500D01*
G37*
G01*
X4305300Y1841500D03*
D14*
G01*
X1511300Y2641600D03*
D15*
G01*
X1511300Y2387600D03*
G01*
X1511300Y2133600D03*
D16*
G01*
X1079500Y22097D03*
G01*
X1079500Y-977900D03*
D17*
G01*
X1676400Y-977900D03*
D18*
G01*
X1930400Y-977900D03*
G01*
X2184400Y-977900D03*
D16*
G01*
X7302500Y6200902D03*
G01*
X7302500Y7200900D03*
G01*
X6972300Y5946902D03*
G01*
X6972300Y6946900D03*
G01*
X6616700Y5692902D03*
G01*
X6616700Y6692900D03*
D15*
G01*
X5410200Y4914900D03*
G01*
X5410200Y5168900D03*
G01*
X5410200Y5422900D03*
G01*
X5410200Y5676900D03*
G01*
X5410200Y5930900D03*
G01*
X5410200Y6184900D03*
G01*
X5410200Y6438900D03*
G01*
X5410200Y6692900D03*
G01*
X5410200Y6946900D03*
G01*
X5410200Y7200900D03*
G01*
X5410200Y7454900D03*
G01*
X5410200Y7708900D03*
G01*
X5410200Y7962900D03*
G01*
X5410200Y8216900D03*
G01*
X5410200Y8470900D03*
G01*
X5410200Y8724900D03*
G01*
X5410200Y8978900D03*
G01*
X5410200Y9232900D03*
G01*
X5410200Y9486900D03*
G01*
X2870200Y4914900D03*
G01*
X2870200Y5168900D03*
G01*
X2870200Y5422900D03*
G01*
X2870200Y5676900D03*
G01*
X2870200Y5930900D03*
G01*
X2870200Y6184900D03*
G01*
X2870200Y6438900D03*
G01*
X2870200Y6692900D03*
G01*
X2870200Y6946900D03*
G01*
X2870200Y7200900D03*
G01*
X2870200Y7454900D03*
G01*
X2870200Y7708900D03*
G01*
X2870200Y7962900D03*
G01*
X2870200Y8216900D03*
G01*
X2870200Y8470900D03*
G01*
X2870200Y8724900D03*
G01*
X2870200Y8978900D03*
G01*
X2870200Y9232900D03*
G01*
X2870200Y9486900D03*
D19*
G01*
X457200Y-5676900D03*
G01*
X2184400Y-5676900D03*
G01*
X2184400Y-1714500D03*
G01*
X457200Y-1714500D03*
G01*
X2959100Y-5689600D03*
G01*
X4686300Y-5689600D03*
G01*
X4686300Y-1727200D03*
G01*
X2959100Y-1727200D03*
G01*
X5448300Y-5689600D03*
G01*
X7175500Y-5689600D03*
G01*
X7175500Y-1727200D03*
G01*
X5448300Y-1727200D03*
G36*
X6070600Y-762000D02*
G01*
X6273800Y-762000D01*
X6273800Y-965200D01*
X6070600Y-965200D01*
G37*
D21*
G01*
X6680200Y-863600D03*
D16*
G01*
X6604000Y784097D03*
G01*
X6604000Y-215900D03*
G36*
X7174400Y496399D02*
G01*
X7354399Y496399D01*
X7354399Y316400D01*
X7174400Y316400D01*
G37*
D18*
G01*
X7264400Y152400D03*
G01*
X7264400Y-101600D03*
D16*
G01*
X6108700Y1152397D03*
G01*
X6108700Y152400D03*
G01*
X943102Y711200D03*
G01*
X1943100Y711200D03*
D15*
G01*
X7308088Y4736972D03*
G01*
X7117841Y4737227D03*
G01*
X6928104Y4736972D03*
G01*
X6738111Y4736972D03*
D19*
G01*
X2565400Y-6121400D03*
G01*
X5092700Y-6121400D03*
G01*
X6807200Y1257300D03*
G01*
X7264400Y952500D03*
G01*
X457200Y-977900D03*
G01*
X444500Y25400D03*
D15*
G01*
X7010400Y7924800D03*
G01*
X7264400Y7924800D03*
G01*
X6756400Y7924800D03*
G01*
X6502400Y7924800D03*
G01*
X1587500Y4838827D03*
G01*
X1587500Y5092827D03*
G01*
X1587500Y5346954D03*
G01*
X1587500Y5600954D03*
G01*
X1587500Y5854827D03*
G01*
X1587500Y6108700D03*
G01*
X3111500Y2743200D03*
G01*
X3365500Y2743200D03*
G01*
X3619500Y2743200D03*
G01*
X3784600Y5930900D03*
G01*
X914400Y8509000D03*
G01*
X914400Y8763000D03*
G01*
X914400Y8255000D03*
G01*
X914400Y8001000D03*
G01*
X7467600Y5168900D03*
G01*
X7213600Y5168900D03*
G01*
X6959600Y5168900D03*
G01*
X6705600Y5168900D03*
M02*
