G04 Layer: TopLayer*
G04 EasyEDA v6.5.1, 2022-03-27 02:12:12*
G04 f7dead78dcdb48cf945481d8fe3a8f79,963ededa1bec40798c37f3e62625e793,10*
G04 Gerber Generator version 0.2*
G04 Scale: 100 percent, Rotated: No, Reflected: No *
G04 Dimensions in millimeters *
G04 leading zeros omitted , absolute positions ,4 integer and 5 decimal *
%FSLAX45Y45*%
%MOMM*%

%ADD10C,0.2540*%
%ADD11C,0.5000*%
%ADD12R,1.6000X1.6000*%
%ADD13C,1.6000*%
%ADD14R,1.5240X1.5240*%
%ADD15C,1.5240*%
%ADD16C,2.0000*%
%ADD17R,1.8000X1.8000*%
%ADD18C,1.8000*%
%ADD19R,2.4994X2.4994*%
%ADD21C,2.0320*%

%LPD*%
D11*
X7010400Y7924800D02*
G01*
X7010400Y7759700D01*
X7200900Y7569200D01*
X7264400Y7569200D01*
X7467600Y7366000D01*
X7467600Y5168900D01*
X6928104Y4736972D02*
G01*
X6928104Y4578095D01*
X7086600Y4419600D01*
X7467600Y4419600D01*
X7467600Y5168900D01*
D10*
X1587500Y5346954D02*
G01*
X2082545Y5346954D01*
X2273300Y5156200D01*
X2857500Y5156200D01*
X2870200Y5168900D01*
X1587500Y5600954D02*
G01*
X2184145Y5600954D01*
X2362200Y5422900D01*
X2870200Y5422900D01*
X7213600Y5168900D02*
G01*
X7213600Y5003800D01*
X7302500Y4914900D01*
X7302500Y4742561D01*
X7308088Y4736972D01*
X6705600Y5168900D02*
G01*
X6705600Y4769485D01*
X6738111Y4736972D01*
X6959600Y5168900D02*
G01*
X6959600Y5029200D01*
X7124700Y4864100D01*
X7124700Y4744085D01*
X7117841Y4737227D01*
X7302500Y6200902D02*
G01*
X7302500Y5257800D01*
X7213600Y5168900D01*
X6972300Y5946902D02*
G01*
X6972300Y5181600D01*
X6959600Y5168900D01*
X6616700Y5692902D02*
G01*
X6616700Y5257800D01*
X6705600Y5168900D01*
D11*
X4305300Y1841500D02*
G01*
X4965700Y1841500D01*
X6324600Y482600D01*
X7014972Y482600D01*
X7264400Y732028D01*
X4051300Y-469900D02*
G01*
X4051300Y1841500D01*
X838200Y3251200D02*
G01*
X838200Y2044700D01*
X1739900Y1143000D01*
X2273300Y1143000D01*
X3797300Y-381000D01*
X3797300Y-469900D01*
X4152900Y3937000D02*
G01*
X4152900Y2438400D01*
X3911600Y2197100D01*
X2641600Y2197100D01*
X1879600Y2959100D01*
X1879600Y3238500D01*
X1612900Y3505200D01*
X838200Y3505200D01*
X7213600Y2667000D02*
G01*
X5943600Y3937000D01*
X4406900Y3937000D01*
X6807200Y1257300D02*
G01*
X7213600Y1663700D01*
X7213600Y2413000D01*
X5448300Y-1727200D02*
G01*
X6172200Y-1003300D01*
X6172200Y-863600D01*
X457200Y-977900D02*
G01*
X457200Y-1714500D01*
X457200Y-5676900D02*
G01*
X457200Y-6121400D01*
X2565400Y-6121400D01*
X2565400Y-6121400D02*
G01*
X2959100Y-5727700D01*
X2959100Y-5689600D01*
X5092700Y-6121400D02*
G01*
X4686300Y-5715000D01*
X4686300Y-5689600D01*
X5092700Y-6121400D02*
G01*
X7175500Y-6121400D01*
X7175500Y-5689600D01*
X5448300Y-5689600D02*
G01*
X5080000Y-5321300D01*
X4368800Y-5321300D01*
X3568700Y-6121400D01*
X2565400Y-6121400D01*
D10*
X3784600Y5930900D02*
G01*
X3784600Y4216400D01*
X3365500Y3797300D01*
X3365500Y2743200D01*
X5410200Y6692900D02*
G01*
X6616700Y6692900D01*
X5410200Y6946900D02*
G01*
X6972300Y6946900D01*
X6756400Y7200900D02*
G01*
X7302500Y7200900D01*
X5410200Y7200900D02*
G01*
X6756400Y7200900D01*
X5410200Y7454900D02*
G01*
X6642100Y7454900D01*
X6756400Y7569200D01*
X6756400Y7924800D01*
X6502400Y7924800D02*
G01*
X6502400Y7835900D01*
X6375400Y7708900D01*
X5410200Y7708900D01*
X914400Y8509000D02*
G01*
X1295400Y8509000D01*
X2628900Y9842500D01*
X5054600Y9842500D01*
X5410200Y9486900D01*
D11*
X6807200Y1257300D02*
G01*
X6807200Y987297D01*
X6604000Y784097D01*
X7264400Y952500D02*
G01*
X7264400Y406400D01*
X6604000Y-215900D02*
G01*
X6172200Y-647700D01*
X6172200Y-863600D01*
D10*
X7264400Y152400D02*
G01*
X6108700Y152400D01*
X2870200Y6184900D02*
G01*
X4013200Y6184900D01*
X4279900Y5918200D01*
X4279900Y2981197D01*
X6108700Y1152397D01*
D11*
X2184400Y-1714500D02*
G01*
X2184400Y-977900D01*
D10*
X1930400Y-977900D02*
G01*
X1943100Y-965200D01*
X1943100Y711200D01*
D11*
X6680200Y-863600D02*
G01*
X7175500Y-1358900D01*
X7175500Y-1727200D01*
X7264400Y-101600D02*
G01*
X7264400Y-279400D01*
X6680200Y-863600D01*
D10*
X2870200Y7200900D02*
G01*
X1816100Y7200900D01*
X330200Y5715000D01*
X330200Y711200D01*
X943102Y711200D01*
D11*
X444500Y25400D02*
G01*
X1076197Y25400D01*
X1079500Y22097D01*
X1079500Y-977900D02*
G01*
X1676400Y-977900D01*
X5410200Y8216900D02*
G01*
X7010400Y8216900D01*
X7010400Y7924800D01*
D12*
G01*
X7213600Y2413000D03*
D13*
G01*
X7213600Y2667000D03*
D12*
G01*
X4406900Y3937000D03*
D13*
G01*
X4152900Y3937000D03*
D12*
G01*
X838200Y3505200D03*
D13*
G01*
X838200Y3251200D03*
G36*
X3717300Y-389900D02*
G01*
X3877299Y-389900D01*
X3877299Y-549899D01*
X3717300Y-549899D01*
G37*
G01*
X4051300Y-469900D03*
G36*
X3971300Y1921499D02*
G01*
X4131299Y1921499D01*
X4131299Y1761500D01*
X3971300Y1761500D01*
G37*
G01*
X4305300Y1841500D03*
D14*
G01*
X1511300Y2641600D03*
D15*
G01*
X1511300Y2387600D03*
G01*
X1511300Y2133600D03*
D16*
G01*
X1079500Y22097D03*
G01*
X1079500Y-977900D03*
D17*
G01*
X1676400Y-977900D03*
D18*
G01*
X1930400Y-977900D03*
G01*
X2184400Y-977900D03*
D16*
G01*
X7302500Y6200902D03*
G01*
X7302500Y7200900D03*
G01*
X6972300Y5946902D03*
G01*
X6972300Y6946900D03*
G01*
X6616700Y5692902D03*
G01*
X6616700Y6692900D03*
D15*
G01*
X5410200Y4914900D03*
G01*
X5410200Y5168900D03*
G01*
X5410200Y5422900D03*
G01*
X5410200Y5676900D03*
G01*
X5410200Y5930900D03*
G01*
X5410200Y6184900D03*
G01*
X5410200Y6438900D03*
G01*
X5410200Y6692900D03*
G01*
X5410200Y6946900D03*
G01*
X5410200Y7200900D03*
G01*
X5410200Y7454900D03*
G01*
X5410200Y7708900D03*
G01*
X5410200Y7962900D03*
G01*
X5410200Y8216900D03*
G01*
X5410200Y8470900D03*
G01*
X5410200Y8724900D03*
G01*
X5410200Y8978900D03*
G01*
X5410200Y9232900D03*
G01*
X5410200Y9486900D03*
G01*
X2870200Y4914900D03*
G01*
X2870200Y5168900D03*
G01*
X2870200Y5422900D03*
G01*
X2870200Y5676900D03*
G01*
X2870200Y5930900D03*
G01*
X2870200Y6184900D03*
G01*
X2870200Y6438900D03*
G01*
X2870200Y6692900D03*
G01*
X2870200Y6946900D03*
G01*
X2870200Y7200900D03*
G01*
X2870200Y7454900D03*
G01*
X2870200Y7708900D03*
G01*
X2870200Y7962900D03*
G01*
X2870200Y8216900D03*
G01*
X2870200Y8470900D03*
G01*
X2870200Y8724900D03*
G01*
X2870200Y8978900D03*
G01*
X2870200Y9232900D03*
G01*
X2870200Y9486900D03*
D19*
G01*
X457200Y-5676900D03*
G01*
X2184400Y-5676900D03*
G01*
X2184400Y-1714500D03*
G01*
X457200Y-1714500D03*
G01*
X2959100Y-5689600D03*
G01*
X4686300Y-5689600D03*
G01*
X4686300Y-1727200D03*
G01*
X2959100Y-1727200D03*
G01*
X5448300Y-5689600D03*
G01*
X7175500Y-5689600D03*
G01*
X7175500Y-1727200D03*
G01*
X5448300Y-1727200D03*
G36*
X6070600Y-762000D02*
G01*
X6273800Y-762000D01*
X6273800Y-965200D01*
X6070600Y-965200D01*
G37*
D21*
G01*
X6680200Y-863600D03*
D16*
G01*
X6604000Y784097D03*
G01*
X6604000Y-215900D03*
G36*
X7174400Y496399D02*
G01*
X7354399Y496399D01*
X7354399Y316400D01*
X7174400Y316400D01*
G37*
D18*
G01*
X7264400Y152400D03*
G01*
X7264400Y-101600D03*
D16*
G01*
X6108700Y1152397D03*
G01*
X6108700Y152400D03*
G01*
X943102Y711200D03*
G01*
X1943100Y711200D03*
D15*
G01*
X7308088Y4736972D03*
G01*
X7117841Y4737227D03*
G01*
X6928104Y4736972D03*
G01*
X6738111Y4736972D03*
D19*
G01*
X2565400Y-6121400D03*
G01*
X5092700Y-6121400D03*
G01*
X6807200Y1257300D03*
G01*
X7264400Y952500D03*
G01*
X457200Y-977900D03*
G01*
X444500Y25400D03*
D15*
G01*
X7010400Y7924800D03*
G01*
X7264400Y7924800D03*
G01*
X6756400Y7924800D03*
G01*
X6502400Y7924800D03*
G01*
X1587500Y4838827D03*
G01*
X1587500Y5092827D03*
G01*
X1587500Y5346954D03*
G01*
X1587500Y5600954D03*
G01*
X1587500Y5854827D03*
G01*
X1587500Y6108700D03*
G01*
X3111500Y2743200D03*
G01*
X3365500Y2743200D03*
G01*
X3619500Y2743200D03*
G01*
X3784600Y5930900D03*
G01*
X914400Y8509000D03*
G01*
X914400Y8763000D03*
G01*
X914400Y8255000D03*
G01*
X914400Y8001000D03*
G01*
X7467600Y5168900D03*
G01*
X7213600Y5168900D03*
G01*
X6959600Y5168900D03*
G01*
X6705600Y5168900D03*
M02*
