M48
METRIC,LZ,000.000
;FILE_FORMAT=3:3
;TYPE=PLATED
;Layer: PTH_Through
;EasyEDA v6.5.22, 2023-01-02 13:12:36
;47529accbdb14ac4be852964c7da3e5e,963ededa1bec40798c37f3e62625e793,10
;Gerber Generator version 0.2
;Holesize 1 = 0.915 mm
T01C0.915
%
G05
G90
T01
X008890Y001270
X019304Y001270
X001270Y005080
X001270Y002540
X001270Y007620
X001270Y010160
X001270Y012700
X001270Y015240
X001270Y017780
X001270Y020320
X001270Y022860
X001270Y025400
X001270Y027940
X001270Y030480
X001270Y033020
X001270Y035560
X001270Y038100
X001270Y040640
X001270Y043180
X001270Y045720
X001270Y048260
X026670Y048260
X026670Y045720
X026670Y043180
X026670Y040640
X026670Y038100
X026670Y035560
X026670Y033020
X026670Y030480
X026670Y027940
X026670Y025400
X026670Y022860
X026670Y020320
X026670Y017780
X026670Y015240
X026670Y012700
X026670Y010160
X026670Y007620
X026670Y005080
X026670Y002540
X007747Y040894
X010287Y040894
X012827Y040894
X015367Y040894
X017907Y040894
X020447Y040894
X007611Y048387
X020311Y048387
X017771Y048387
X015231Y048387
X012691Y048387
X010151Y048387
M30
