G04 Layer: TopSolderMaskLayer*
G04 EasyEDA v6.5.22, 2023-01-02 13:12:36*
G04 47529accbdb14ac4be852964c7da3e5e,963ededa1bec40798c37f3e62625e793,10*
G04 Gerber Generator version 0.2*
G04 Scale: 100 percent, Rotated: No, Reflected: No *
G04 Dimensions in millimeters *
G04 leading zeros omitted , absolute positions ,4 integer and 5 decimal *
%FSLAX45Y45*%
%MOMM*%

%ADD10C,1.7272*%
%ADD11C,1.6256*%

%LPD*%
D10*
G01*
X889000Y127000D03*
G01*
X1930400Y127000D03*
G01*
X127000Y508000D03*
G01*
X127000Y254000D03*
G01*
X127000Y762000D03*
G01*
X127000Y1016000D03*
G01*
X127000Y1270000D03*
G01*
X127000Y1524000D03*
G01*
X127000Y1778000D03*
G01*
X127000Y2032000D03*
G01*
X127000Y2286000D03*
G01*
X127000Y2540000D03*
G01*
X127000Y2794000D03*
G01*
X127000Y3048000D03*
G01*
X127000Y3302000D03*
G01*
X127000Y3556000D03*
G01*
X127000Y3810000D03*
G01*
X127000Y4064000D03*
G01*
X127000Y4318000D03*
G01*
X127000Y4572000D03*
G01*
X127000Y4826000D03*
G01*
X2667000Y4826000D03*
D11*
G01*
X2667000Y4572000D03*
G01*
X2667000Y4318000D03*
D10*
G01*
X2667000Y4064000D03*
G01*
X2667000Y3810000D03*
G01*
X2667000Y3556000D03*
G01*
X2667000Y3302000D03*
G01*
X2667000Y3048000D03*
G01*
X2667000Y2794000D03*
G01*
X2667000Y2540000D03*
G01*
X2667000Y2286000D03*
G01*
X2667000Y2032000D03*
G01*
X2667000Y1778000D03*
G01*
X2667000Y1524000D03*
G01*
X2667000Y1270000D03*
G01*
X2667000Y1016000D03*
G01*
X2667000Y762000D03*
G01*
X2667000Y508000D03*
G01*
X2667000Y254000D03*
G01*
X774700Y4089400D03*
G01*
X1028700Y4089400D03*
G01*
X1282700Y4089400D03*
G01*
X1536700Y4089400D03*
G01*
X1790700Y4089400D03*
G01*
X2044700Y4089400D03*
G01*
X761111Y4838700D03*
G01*
X2031111Y4838700D03*
G01*
X1777111Y4838700D03*
G01*
X1523111Y4838700D03*
G01*
X1269111Y4838700D03*
G01*
X1015111Y4838700D03*
M02*
