M48
METRIC,LZ,000.000
;FILE_FORMAT=3:3
;TYPE=PLATED
;Layer: PTH_Through
;EasyEDA v6.5.1, 2022-03-27 02:12:12
;f7dead78dcdb48cf945481d8fe3a8f79,963ededa1bec40798c37f3e62625e793,10
;Gerber Generator version 0.2
;Holesize 1 = 0.813 mm
T01C0.813
;Holesize 2 = 0.881 mm
T02C0.881
;Holesize 3 = 0.915 mm
T03C0.915
;Holesize 4 = 1.000 mm
T04C1.000
;Holesize 5 = 1.499 mm
T05C1.499
%
G05
G90
T01
X061722Y-008636
X066802Y-008636
T02
X015113Y026416
X015113Y023876
X015113Y021336
T03
X054102Y049149
X054102Y051689
X054102Y054229
X054102Y056769
X054102Y059309
X054102Y061849
X054102Y064389
X054102Y066929
X054102Y069469
X054102Y072009
X054102Y074549
X054102Y077089
X054102Y079629
X054102Y082169
X054102Y084709
X054102Y087249
X054102Y089789
X054102Y092329
X054102Y094869
X028702Y049149
X028702Y051689
X028702Y054229
X028702Y056769
X028702Y059309
X028702Y061849
X028702Y064389
X028702Y066929
X028702Y069469
X028702Y072009
X028702Y074549
X028702Y077089
X028702Y079629
X028702Y082169
X028702Y084709
X028702Y087249
X028702Y089789
X028702Y092329
X028702Y094869
X073081Y047370
X071178Y047372
X069281Y047370
X067381Y047370
X070104Y079248
X072644Y079248
X067564Y079248
X065024Y079248
X015875Y048388
X015875Y050928
X015875Y053469
X015875Y056009
X015875Y058548
X015875Y061087
X031115Y027432
X033655Y027432
X036195Y027432
X037846Y059309
X009144Y085090
X009144Y087630
X009144Y082550
X009144Y080010
X074676Y051689
X072136Y051689
X069596Y051689
X067056Y051689
T04
X072136Y024130
X072136Y026670
X044069Y039370
X041529Y039370
X008382Y035052
X008382Y032512
X037973Y-004699
X040513Y-004699
X040513Y018415
X043053Y018415
X010795Y000221
X010795Y-009779
X016764Y-009779
X019304Y-009779
X021844Y-009779
X073025Y062009
X073025Y072009
X069723Y059469
X069723Y069469
X066167Y056929
X066167Y066929
X066040Y007841
X066040Y-002159
X072644Y004064
X072644Y001524
X072644Y-001016
X061087Y011524
X061087Y001524
X009431Y007112
X019431Y007112
T05
X004572Y-056769
X021844Y-056769
X021844Y-017145
X004572Y-017145
X029591Y-056896
X046863Y-056896
X046863Y-017272
X029591Y-017272
X054483Y-056896
X071755Y-056896
X071755Y-017272
X054483Y-017272
X025654Y-061214
X050927Y-061214
X068072Y012573
X072644Y009525
X004572Y-009779
X004445Y000254
M30
